<svg xmlns="http://www.w3.org/2000/svg" preserveAspectRatio="none" style="display:block" viewBox="0 0 2048 1365"><defs><linearGradient id="j" x1="1452.1" x2="1407.1" y1="128.4" y2="108.6" gradientUnits="userSpaceOnUse"><stop class="stop0" offset="0" stop-color="#ed9a88"/><stop class="stop1" offset="1" stop-color="#e1ad93"/></linearGradient><linearGradient id="i" x1="1092.8" x2="1426.5" y1="234" y2="319" gradientUnits="userSpaceOnUse"><stop class="stop0" offset="0" stop-color="#253c52"/><stop class="stop1" offset="1" stop-color="#4b7a60"/></linearGradient><linearGradient id="h" x1="435.2" x2="539.1" y1="1046" y2="988.5" gradientUnits="userSpaceOnUse"><stop class="stop0" offset="0" stop-color="#088392"/><stop class="stop1" offset="1" stop-color="#08749e"/></linearGradient><linearGradient id="g" x1="6" x2="1.6" y1="1129.9" y2="1128.6" gradientUnits="userSpaceOnUse"><stop class="stop0" offset="0" stop-color="#095c86"/><stop class="stop1" offset="1" stop-color="#0374a9"/></linearGradient><linearGradient id="f" x1="3.4" x2="4.9" y1="883.5" y2="878.2" gradientUnits="userSpaceOnUse"><stop class="stop0" offset="0" stop-color="#055e91"/><stop class="stop1" offset="1" stop-color="#0077a9"/></linearGradient><linearGradient id="e" x1="7.4" x2="5.5" y1="755.2" y2="760.4" gradientUnits="userSpaceOnUse"><stop class="stop0" offset="0" stop-color="#085d87"/><stop class="stop1" offset="1" stop-color="#0378a9"/></linearGradient><linearGradient id="d" x1="4.3" x2="8.6" y1="571.8" y2="568.5" gradientUnits="userSpaceOnUse"><stop class="stop0" offset="0" stop-color="#075f8c"/><stop class="stop1" offset="1" stop-color="#0185b9"/></linearGradient><linearGradient id="c" x1="6.1" x2="1.6" y1="1167.4" y2="1163.8" gradientUnits="userSpaceOnUse"><stop class="stop0" offset="0" stop-color="#066793"/><stop class="stop1" offset="1" stop-color="#0280b5"/></linearGradient><linearGradient id="b" x1="2.7" x2="6.3" y1="443.3" y2="441.9" gradientUnits="userSpaceOnUse"><stop class="stop0" offset="0" stop-color="#075985"/><stop class="stop1" offset="1" stop-color="#0283b9"/></linearGradient><linearGradient id="a" x1="5.6" x2="8.6" y1="1001.1" y2="999" gradientUnits="userSpaceOnUse"><stop class="stop0" offset="0" stop-color="#076494"/><stop class="stop1" offset="1" stop-color="#017dad"/></linearGradient></defs><path fill="#62384f" d="M0 0h2048v1365H0z"/><path fill="#192343" d="M0 0h886.3c-8.5 44.4-13.3 90.7-21 135.2l-.8 4.9c-4.4 22.5-7.7 49.1-11.4 72.1l-.4 4.5-13 82.3-.5 4c-3.5 16.7-6.2 37.5-8.7 54.7l-.9 4q-3.3 24.8-7.1 49.6a764 764 0 0 0-9.6 72.9c6.2-2.5 38.5-17.4 43-17.7v-.8c.6-4.8.8-10.8 2.8-15.2 16-34.8 188.1-109.8 229-123.9l.3 1.2c-8 4.1-19.7 6.5-23.2 16.9.7 5 1.5 5.2 6.3 7.3l1.2 2c3.7-2.2 2.5-1 4.4-5.8 3.2-2.2 22.6-9 28.1-11.2l1.9 1c.4 7.4-1.7 22-2.1 30.2l-.6 4q-5 60.7-10.7 121.3c-1.2 13.2-5.7 50.9-5.4 62.3-5.2.6-6.5 1.4-11.3 3.5l1-.1c16.4-2 22.6-7.7 39.3-4.3l.5 1.2c-1 2.2-1 2.7-.8 5.1-6 8.1-55.6 12.4-59.4 19.9-83.7 27.2-180.7 56.7-251.5 111.4l-1 2.2 1.5 2.8c-5.2 1-7.1.8-12.4.6 1.7.5 3.6.5 4.1 1.7 1.8 4.6.4 11.7-.4 16.1l-2.3 1.5 2.2 1c.5 5-1.1 13.3-2 18.4-3 17-4.6 33.3-7 50.2l-1.2 9.3c-2.1 21.8-5.7 50.3-6.5 71.6l-.7 4.4c0 8.4-.8 14.8-1.3 22.9 14 9.9 41.4 25 57 34.1q50.8 30.4 102.4 59a6031 6031 0 0 0 583.5 281.1q87.6 35.4 176.4 67.4c11.1 4 72.5 24.5 78.2 28.2H0z"/><path fill="#192343" d="M0 0h886.3c-8.5 44.4-13.3 90.7-21 135.2l-.8 4.9c-4.4 22.5-7.7 49.1-11.4 72.1l-.4 4.5-13 82.3-.5 4c-3.5 16.7-6.2 37.5-8.7 54.7l-.9 4c-26.2-6.7-57.9-12.9-84.4-18.6a7647 7647 0 0 0-173.7-36.2l-379.3-75.7C130.5 219.3 60.5 207.6 0 193.5z"/><path fill="#192343" d="M91.9 0h794.4c-8.5 44.4-13.3 90.7-21 135.2l-.8 4.9c-4.4 22.5-7.7 49.1-11.4 72.1l-.4 4.5-13 82.3c-19.2-10.3-60-25.3-81.6-33.9L638.7 217 267.3 70l-101-40C141.9 20.5 116 10.7 92 0"/><path fill="#192343" d="M574.5 0h311.8c-8.5 44.4-13.3 90.7-21 135.2l-.8 4.9c-4.4 22.5-7.7 49.1-11.4 72.1C762.3 140.3 666 71.7 574.5 0"/><path fill="#192343" d="M747 0h139.3c-8.5 44.4-13.3 90.7-21 135.2-8.9-8.1-26-29.2-35.2-39.5A5320 5320 0 0 1 747 0"/><path fill="#056f9e" d="M741.6 0h5.3q41 48.3 83.2 95.7c9.2 10.3 26.3 31.4 35.2 39.5l-.8 4.9c-33.3-34.8-64.2-72.6-96.2-108.7A723 723 0 0 1 741.6 0M567.3 0h7.2C665.9 71.7 762.3 140.3 853 212.2l-.4 4.5c-9.9-6.9-21-16-30.8-23.3q-36.9-27.6-73.3-55.8zM79.7 0H92c24 10.6 50 20.4 74.5 30l100.9 40 371.4 147 119.3 48c21.6 8.6 62.4 23.6 81.5 34l-.4 3.8c-59.1-26.2-128.6-52.6-189.3-77L249.6 67.1C195.3 45.7 132.8 23.1 79.7 0M0 189.4l830.5 168.3-.9 4c-26.2-6.7-57.9-12.9-84.4-18.6a7647 7647 0 0 0-173.7-36.2l-379.3-75.7C130.5 219.3 60.5 207.6 0 193.5zM0 411l127.4.3c2.4 8.7 9.7 23.2 9.4 29.3-.5 14.4-4.5 32.3-7.3 46.7l-12.5 67Q88.3 708.8 57.3 862.9l-.3 1-2.7 2.6c-20 35-23.6 64-12.9 103.1q8.6 31.5 24.2 60.1l1.6-2.5c2.8 2.3 9 2.6 13 3.2 1 7.3 5.7 26 5.7 31.5l1.3 2 7 9.3q18.8-.3 37.7 0c-1.3 10.3-3 28.6-5 38.3q5.5 4.7 10.8 9.6a672 672 0 0 0 69 57.3 72 72 0 0 0 11.8 7.7l1.2 2 94.4.2c-1.3 15.5-3.8 41-6.1 56.4 2.6 1.5 9.6 5.3 11.7 7a765 765 0 0 0 95.2 44c3.5 1.4 8.4 4 11.7 3.5 3.3 4.8 42.4 19 49.1 20.4 5.4-.8 34-.5 41.3-.6q-.3 7.9-1 15.7l11.9 4q24 8 48.1 15.3c9.3 2.8 24.6 7.1 33.4 11H0z"/><path fill="#192343" d="M28.7 1038.7a417 417 0 0 0 35.8 68.5c64.7 95.4 189.5 172.4 292.4 221.2q28 13 56.5 25c8.3 3.4 20.6 7.9 28.4 11.6H172.4c-59.3-85.7-103-166.2-129.4-267.7-4.8-18.4-12-40.2-14.3-58.6"/><path fill="#308869" d="m219.7 1188 94.4.3c-1.3 15.5-3.8 41-6.1 56.4-27.6-16-63.2-36.8-88.3-56.7M94.2 1073.2q18.8-.3 37.7 0c-1.3 10.3-3 28.6-5 38.3-12-14.6-20.5-21-32.7-38.3"/><path fill="#3198c4" d="m0 669 2.5-.6c1.8 2.7 1.6 4.2 1 7.4 4.2 2.2 6.4-.5 10.4 2.2.8 3.5.8 2-.5 5.6a52 52 0 0 1-5.7 3.9v2l1.4.5c3.2-2.5 5.5-2 9.4-2 .2-1.8.2-1.2 0-3h1.6l1 1-1.9 4.7c3.6 2.8 3.3 1.7 3.7 5-4.4 8-8.3 1.5-12.9 5.1l.2 1.6c-3.2 2-7.5 4.2-10.2 6.1z"/><path fill="#06689f" d="M0 703.2c1.9-.3 2-.5 3.7-1.4.5-2.5.3-2.7-.2-5.3l-.1-.8 1-.8 1.4.8c.4 2.7.3 3.3 1.7 5.5l2.5-.4.2 1.6c-3.2 2-7.5 4.2-10.2 6.1zm0 68.3c6.4 3 5.2.2 10.8 1.8 9.4 10.9-9 18.2-.4 27.2 1.6-.5 1.5-.5 2.6-2 3.6 1.4 4.7 1.8 8 3.7l1.3.7c-2 1.5-8 4.7-10.7 2.5-3-2.4-7.4 7-8 9.2-1.7 1-1.6 1-3.6 1zm0 259.2c8-1 4.4-3.7 9.2-3.7l.4 1.3c.1-.1-4.2 8.5-4.2 8.8 2.4 6.8 7 4.7 7.7 10.4-3.8 2-3.9-1.8-7 2 .3 4 .4 3.1 3.3 6.8l-1.6 1.7-1.2-2.8c-1.4 2.7-1 6 .4 8.8 2.7 0 4.9-1.2 7.4-2.2l1 1.3v-1c-2.8 10.5-9.3 6.9-15.4 10z"/><path fill="#308869" d="M517 1319q-.3 7.9-1 15.7a386 386 0 0 1-40.3-15c5.4-1 34-.6 41.3-.7"/><path fill="#06689f" d="m0 956.7 2.4 3.8c5.3 0 2.5 1.9 4.5.8l-.9-1 2.4 1c-2.7 2-3.2 1.6-3.8 4.7l.9 1.1 1.8-1 3.1 2q-.1-3.4.2-6.7L12 960l1.2 1.2c-1 3.9-1.9 4.6-.5 7.7l2-.8c1.1 2 .9 2.3.6 4.6-2.2.1-3.9-1.4-5.9-2.7L6 972.7c1.4 4 4.1 10.6 3.5 14.5l-2 2.5-1.1-2L5 989l-1.8-1.3-1 4-2.2.6z"/><path fill="#6aba8e" d="m65.6 1029.7 1.6-2.5c2.8 2.3 9 2.6 13 3.2 1 7.3 5.7 26 5.7 31.5a306 306 0 0 1-20.3-32.2"/><path fill="#3198c4" d="M0 437.6c6.4 6.8-.6 6.5 5.1 8.7l.9-.2c1.7 1.7 1.8 2.3 2.7 4.5 2.4 1.5 1 1 4.3.7-.4 2-.2 1.3-1.3 3.2l1.2 1.1 3.8-.8 1.3 1.7-.4 2.2c-2.3-.3-2.8-.7-4.8-1.6-2.7 5.1-.3 8.1-5 11.7l-1.1-.4c0-1.9-.7-3-1.3-4.7l-1.8-.6-3.6 1.7zM16.4 1365l-.5-2.3c-4-.5-5-.6-9 0 .8-4.4 5.7-3.2 6.5-7.2l-2.6-1.1 1.9-5.5a68 68 0 0 1 5.4 15.6c2.8-.8 3-3.5 8-4.8 2.2-3.4 1.2-3.3.8-8.2l2-.3c.5 1.7 1.4 8.5 2.2 9.5 3-1.3 2.3-1.5 4.4-4.8 4.1 2.6 8 3.8 9 7.7l1.8-1.5-.1 2.9zM0 487.8l1.6.5.8 2.6c3.5 2.9-.3 3.8 3 7l3.1-2.2 1.2.8-2 2.5 2 3.5-.8 1.1-4 .4.1 1c4.5 3.3 8.4-.4 10.9 2.4q-2 2.9-4.3 5.6l1.5 1.9-1 1.5c-3-.3-4 .1-6-1.4 1.5-1.7.5-1 3.2-1.4l-.5-1.5-.7-.3c-3.6-1.7-5-2.8-8.1-5.1zm93.9 870.6 1.6 2 1.7-.8c2.5 1 2.2 1.3 4.3.9.6-3.4 0-2.3 2-4.7 1.2 3.7-.8 4.6.9 6.5 2.6-3.3.1-4.2 3-7l-.9-1 1.6-.3-1.3 1.1.4-1.3.8.5-1.2.8-.3-.2 1-1.2.8 1.7 2.9-.5c.1-1.7 0-1.8-.7-3.5 1.3 1 1.8 1.4 2.9 2.5l1.5-.7.7-2.8c1.1 1.6.8.9 1 2.8l1.7 1c-2.5 2.8-2 1.5-2.6 5l.1-2.2.9 2.8 2.6.8c-2.2 1.8-1.3 1.3-4.3 1.9l-2.6-2.1a23 23 0 0 0-2.5 4.6h-8.2l-.1-1.3c-3.3 0-8.1-.8-11.3-1.7l-.5-1.8c1.5-1.7 1.4-1.2 4-1.8"/><path fill="#06689f" d="m0 464.8 3.6-1.7 1.8.6c.6 1.7 1.3 2.8 1.3 4.7l1.2.4.8 1.8-3.7 1v1.5q1.5.5 3 1.4c-1.2 7.3-2.9 10-5.6 16.4l-.8-2.6-1.6-.5z"/><path fill="#3198c4" d="M0 1218c5.9 4.6 7.6.2 13 7.6l-.1 2.4c-4.7 4-9.9 2.1-10.8 4.8 1.8 3.9 2 2.7 1.4 6.3-1.4 1.2-1.8 1.7-3.5 2.4zm0-276.6c4.4-.3 7-.4 9.9 4-.2 6-4.1 10.3-7.5 15L0 956.8z"/><path fill="#06689f" d="m49.9 1365 1.7-2-.6-1.8-1 .6q1.4-4.2 2.4-8.5l1.4-.7c2.8 2.1 2.1 3.9 2.5 4.1 5.4 3.1 2.7 3 3.4 8.3z"/><path fill="#056f9e" d="M0 1176c1.6-3 1-2.8 3.5-4.4l1.1 2.1c.3-3.4.3-4.1 1.5-7.3l1.3-.3 2 2 1.3 4c-2.2 3.9-4.4 5.8-7.5 8.7l1 .3c-1.8 1.2-2 1-4.2 1.1z"/><path fill="#06689f" d="M142.2 1365c2.5-5.8-1.3-9.6.5-12.7l3.3-.6 1.9-2.8c1.2 5 2 5.4-2 9.1l.3 2.6c6 1.5 4.8.2 7.6 4.4zM0 717.4c1.8-1.6 3-2.4 4.2-4.5l-.5-1.2h.9l-.7-1 .7.2-.6.7c5 4.2 5 3.7 10.9 1.3-.3 2.2-1.2 3-2.6 4.6-5.5 1-2-2.6-7-.6.8 3.7 3.8 0 2.6 5.6-3.8.8-4.3-.5-7.9-1.7zM88 1365c-2.7-1.2-3.4-3-3.7-5.7 1.8-3.6.7-2.4 4.5-4.5l3.9 1.5.6.2.6 1.9c-2.7.6-2.6 0-4.1 1.8l.5 1.8c3.2 1 8 1.7 11.3 1.7l.1 1.3z"/><path fill="url(#a)" d="m0 992.3 2.1-.5 1.1-4L5 989c-.7 2.3-.8 2.8-1.8 5 1.6 3 5 3.9 7.9 7.5l.2 1.9-1.8 1.6-2-.3v-3.2l-.5-1 .5 1c-2.3-1.1-1.5-.8-4.4-.3-.6-2.1-.5-2 .3-4-1.4-1.5-1.6-1.8-3.4-2.6z"/><path fill="url(#b)" d="m0 432 4.9 1.5c-1.2 4.4-.6 5.2 1.8 8.9q-.3 1.5-1 3l.3.7-.9.2c-5.7-2.2 1.3-1.9-5.1-8.7z"/><path fill="url(#c)" d="M0 1169.4c3.6-2.7 2.9-2.9 2.9-7.5l1.4-.3 1 3.2c1.1-.5 1.4-.7 2.8-.8 1.5 2.5 1.6 1.8 1.3 4l-2-2-1.3.4c-1.2 3.2-1.2 4-1.5 7.3l-1.1-2c-2.5 1.5-1.9 1.3-3.5 4.3z"/><path fill="url(#d)" d="M0 563.9a15 15 0 0 1 9.2 5.9c.5 3.5.4 2.3-.9 6-3-3.4-4.3-5.4-8.3-7.4z"/><path fill="#06689f" d="M0 621.6c3.4-2.7 3.7-4 8.2-3.1l-.6.8c-4.6 6.4-2 4.2-1.5 9.9l-1.3.3c-3.4-2.9-1.8-3.4-4.8-6zm0 681.6c4 .1 4.8.1 6 4.5-1.5 4.4-1 4-6 3.2z"/><path fill="#3198c4" d="m54.3 866.5-1.5-.5c-1.7-2.2-4-5.3-2.5-8 3.7.7 4 2 7 5l-.3.9z"/><path fill="#06689f" d="M0 430.3c4-7.5-.9-5 3.8-8l1.3.6c-1.7 4.7-1.5 3.4 1 9.2L5 433.5l-5-1.4z"/><path fill="url(#e)" d="m0 756.5 4 2c2-1.2 2.2-1.1 3.7-3.1l1.9 1.9-.1 2.1c-3.8 2.8-5.7 2-9.5-.7z"/><path fill="url(#f)" d="M0 878.6c4.2-.7 2.7-1.1 5.9.8l1.3 2.3-1 2.1c-3 .2-3.2-1.4-6.2-3.3z"/><path fill="#06689f" d="M0 819.5c2.9-1.4 3.2-1.4 6.4-1.2.7.6.8 2.2 1.1 3.4l-2.2 1.6-2.8-2.6-2.5.6z"/><path fill="url(#g)" d="M3.1 1122c.9.6 2.2 1.1 3.1 1.6 1.2 4.7.8 7.7-1.7 11.8l-1.7 1.5-1-1.3c-.6-5.1.4-8.6 1.3-13.6"/><path fill="#056f9e" d="M158.4 411.1c67.5-.9 136.4.1 204 0l460 .2a764 764 0 0 0-9.5 72.9c-35.9 15.3-74.8 38-110.8 53.7-10.9 5.8-22.4 11.1-33.6 16.4q-38.3 18-76 36.8c-9.8 4.9-32.4 17.1-41.8 20.2l-3.6 2c-23.8 11.2-47.5 23.6-71.4 34.8-8 3.8-41.6 19-47.9 23-61.3-43.5-255.6-179.7-271-253.4-1.2-3.8-1.8-3.4-.8-6.5z"/><path fill="#06689f" d="M668.5 554.3c-.2-6.4 3-8 7-14.8l4.5 3.7c8.5 1.2 6-4.5 13.3-7 3.8.1 5.3 0 8.8 1.7-10.9 5.8-22.4 11.1-33.6 16.4m-121.4 59.1c-3.4-1.6-4.2-1.9-6.6-4.7l.5-1c3.7 0 5.8 0 9.5-.6l1-1.7-2.5-1.7c1-1.9 2.4-2.6 4-4l1.1.8-.8 2.5c2.5 3.6-.3 5.5-2.6 8.3z"/><path fill="#3198c4" d="M156.7 417.7c-1.1-3.8-1.7-3.4-.7-6.5h2.4c3.1 2.4 3.9 4.5 5.8 8l-.2 1.4c-4 0-3.7-.6-7.3-3M565 595.8l.7.2c.6 2.7.6 2.6-.2 5.3l-2 .5c-1.8-1.1-1.9-1-2.8-3z"/><path fill="#192343" d="M856 465.7c.5-4.8.7-10.8 2.7-15.2 16-34.8 188.1-109.8 229-123.9l.3 1.2c-8 4.1-19.7 6.5-23.2 16.9.7 5 1.5 5.2 6.3 7.3l1.2 2c3.7-2.2 2.5-1 4.4-5.8 3.2-2.2 22.6-9 28.1-11.2l1.9 1c.4 7.4-1.7 22-2.1 30.2l-.6 4q-5 60.7-10.7 121.3c-1.2 13.2-5.7 50.9-5.4 62.3-5.2.6-6.5 1.4-11.3 3.5l1-.1c16.4-2 22.6-7.7 39.3-4.3l.5 1.2c-1 2.2-1 2.7-.8 5.1-6 8.1-55.6 12.4-59.4 19.9-83.7 27.2-180.7 56.7-251.5 111.4l-1 2.2 1.5 2.8c-5.2 1-7.1.8-12.4.6-53-.9-52-19.8-53.5-65a47 47 0 0 0-7.4-23.7c4.7-2.3 6-4.7 10.6-7.3l6 2.6 2-1c5.2-6 9.7-23.5 4.7-30.1 2.3-3.7 4.9-6.8 5.2-11-.7-1.2-1.3-2.8-3-3-27.7-2.2-22.6 17.2-35.4 33-57.4-28.5-127.6-15.8-157.6 46-4.7 9.7-7.2 18-10 28.4 5.7 1.5 6.5 2.1 11.5 5.5 19.4-28.5 19.9-40.4 55.3-58.1-4.9 6.3-12.5 16.6-18.2 21.8-19.2 17.6-29.9 28-38.5 53.4-6.7 20-12 38.7-17.2 59.4-39.8-24.6-81.2-52-120.5-77.8 6.3-4.1 40-19.4 48-23 23.8-11.3 47.5-23.7 71.3-34.8l3.6-2.1c9.4-3 32-15.3 41.7-20.2q37.8-19 76.1-36.8c11.2-5.3 22.7-10.6 33.6-16.4 36-15.6 75-38.4 110.8-53.7 6.2-2.5 38.5-17.4 43-17.7z"/><path fill="#82c39b" d="M871.9 457.8c5.6-1.5 14.6-6 21.3-8.2-3 24-40.4 189.6-38.6 195.3 3.2-.3 5.1-2 7.9-3.8l32.5-16c2.4-.9 6.2-3 8.5-4.2 12.3-5.8 26.4-10.5 38.1-16.4l8.2-3.2c5-2.7 32.6-12.2 40-15l8.9-3a488 488 0 0 1 42-13.5l8.5-3c6.8-1 20.8-5.5 27.4-7.5l1-.1c16.4-2 22.6-7.7 39.3-4.3l.5 1.2c-1 2.2-1 2.7-.8 5.1-6 8.1-55.6 12.4-59.4 19.9-83.7 27.2-180.7 56.7-251.5 111.4l-1 2.2 1.5 2.8c-5.2 1-7.1.8-12.4.6-53-.9-52-19.8-53.5-65a47 47 0 0 0-7.4-23.7c4.7-2.3 6-4.7 10.6-7.3l6 2.6 2-1c5.2-6 9.7-23.5 4.7-30.1 2.3-3.7 4.9-6.8 5.2-11-.7-1.2-1.3-2.8-3-3-27.7-2.2-22.6 17.2-35.4 33-57.4-28.5-127.6-15.8-157.6 46-4.7 9.7-7.2 18-10 28.4 5.7 1.5 6.5 2.1 11.5 5.5 19.4-28.5 19.9-40.4 55.3-58.1-4.9 6.3-12.5 16.6-18.2 21.8-19.2 17.6-29.9 28-38.5 53.4-6.7 20-12 38.7-17.2 59.4-39.8-24.6-81.2-52-120.5-77.8 6.3-4.1 40-19.4 48-23 23.8-11.3 47.5-23.7 71.3-34.8l3.6-2.1c9.4-3 32-15.3 41.7-20.2q37.8-19 76.1-36.8c11.2-5.3 22.7-10.6 33.6-16.4 36-15.6 75-38.4 110.8-53.7 6.2-2.5 38.5-17.4 43-17.7-9 56-23.8 113.1-33 169.2-1.8 10.8-4.4 22-7 32.7 3.6-2.2 6.3-4.3 9.6-6.9l17.5-86.4c7.5-38.3 14-75.5 22.2-114 1.2-.8 5.2-2.6 6.7-3.3"/><path fill="#d98384" d="M555.4 667c5.7 1.5 6.5 2.1 11.5 5.5-4.8 5.5-13.9 15-21.4 15.8L544 687c-.2-6.7 7.1-14.6 11.3-20.1"/><path fill="#6aba8e" d="M1022.7 402.4c8-2.8 36.7-15 42.6-15-1.7 17.2-4.7 36-7 53.2q-5.2 39.9-10.7 79.8c-2 13.6-6.1 36.9-7 49.4a498 498 0 0 0-41.9 13.5c1-18 6.5-49.6 9.2-68.4q8-56.2 14.8-112.5M980 417.3c8.3-2.2 26.9-11.2 34.3-11.8-6.1 58.2-17 122.2-24.5 180.9-7.4 2.7-35 12.2-40 14.9 3.3-14.7 6.6-41 9.3-57q11.1-63 20.7-126.6zm-43 15.9c9.8-3.2 24.6-8 33.7-12.1-5.2 42.7-14.9 87.2-21.2 129.9-2.2 15.3-6.9 38.4-7.9 53.5-11.7 5.9-25.8 10.6-38 16.4 4.4-19.7 8-43.8 11.6-64zm137-49.9 30-11.1q-5 60.7-10.7 121.3c-1.2 13.2-5.7 50.9-5.4 62.3-5.2.6-6.5 1.4-11.3 3.5-6.6 2-20.6 6.5-27.4 7.6 2.9-14.1 5.7-38.2 7.8-53q8.8-65 16.8-130.2zm-172.3 63.4c8.3-3.5 17.8-6.9 26.4-10.1l-22.8 129.6c-2.8 16-8.5 43.6-10.3 58.9l-32.5 16c11.3-48.6 19.5-98.5 30.3-147.3 3.3-14.8 6.5-31.4 8.6-46.4z"/><path fill="#308869" d="M1069 352.2c.2 9-2.2 25.2-3.5 34.6l-.2.7c-6-.1-34.6 12-42.6 15a417 417 0 0 0 3.7-32.8c13.4-6 28.7-11.8 42.5-17.6m-85.6 36.8c12.3-5.3 23.2-10 35.2-16.1l-3.8 32.1-.4.6c-7.4.6-26 9.6-34.3 11.8zm123.4-50.9c.4 7.4-1.7 22-2.1 30.2l-.6 4-30 11c1.7-9.6 2.8-24 3.2-33.8 9.7-4.1 19.6-6.8 29.5-11.4m-165.9 72.8c11-6.1 22.8-12 34-17.7l-3.3 25.2-.8 2.8c-9.1 4-23.9 9-33.7 12 1.3-5.5 2.8-16.3 3.8-22.3m-36.4 21.8q13.5-8.4 27.2-16.2c-.6 6.3-2 13.2-3 19.4l-.5.8c-8.6 3.2-18 6.6-26.5 10.1zm-32.5 25.2c3.8-4.6 16.6-13.5 21.8-17.2l1 .3-1 8.3-.5.4c-6.7 2.2-15.7 6.7-21.3 8.2"/><path fill="#a4375f" d="M994.1 1046.8c42.5 21 83.3 43.6 126.3 64.2q3 67.5 7 134.9c1.3 21.6 3.3 46.3 3.7 67.7l.4 4.6c1.4 14.7 2 32 2.8 46.8H1006a590 590 0 0 1-3.1-44c-.8-4.5-1-12.5-1.3-17.3-1-4.8-1-17-1.2-22.8l-1.7-43.2c-2-63.2-1.7-128.2-4.6-191"/><path fill="#056f9e" d="M1131.5 1318.2c1.4 14.7 2 32 2.8 46.8H1006a590 590 0 0 1-3.1-44l91.1.1c5.5 0 33 .4 36.8-.4z"/><path fill="#82c39b" d="m1001.6 1303.7.5-3c2.4-1.4 116.8 11.2 129 13l.4 4.5-.7 2.5c-3.8.8-31.3.4-36.8.4h-91.1c-.8-4.6-1-12.5-1.3-17.4"/><path fill="#a4375f" d="M1132 1117.6c40 19.4 78.5 38.9 118.9 57.7q1.3 22.5 3.2 44.8c4.2 48.2 6.6 96.8 11.6 144.9h-119.6c-.3-14.3-1.8-28.7-2-43.3l-.6-3.2c-2.3-22.9-3.1-47.1-4.5-70z"/><path fill="#06689f" d="M1144.1 1321.7c17.4 0 39 .7 56.1 0 9.5.7 18.4 1.2 28 1.5v41.8h-82c-.4-14.3-2-28.7-2-43.3"/><path fill="#82c39b" d="m1143.5 1318.5 1.2-2.1c4.7-1 48 4.4 55.5 5.3-17 .7-38.7 0-56 0z"/><path fill="#a4375f" d="M874.7 980.7c32.1 17.7 64 36 96.5 53q5.5 2.7 10.8 5.8l3.3 169c.7 28.4 3 61.9 3 89.7q-9.7-.8-19.3-1.3c-.3-34.5-1-68.3-1-102.9l-24-1.5q-35.3.4-70.7 0l-.2-12.4q-.4-55.9 0-111.8c0-24.7-.2-63.3 1.6-87.6"/><path fill="#82c39b" d="M873.1 1180.1q23.6 3.6 47 7.9c5 .8 19.8 3 24 4.5q-35.4.4-70.8 0z"/><path fill="#a4375f" d="M778.9 923.6c28 16.5 56 33.8 84.2 50.2-2.5 67.8-3 137.7-2.3 205.7 0 3.7.3 6.6 0 10.3-.3-3.5-.3-8.5-.4-12.2q-9.4-.9-18.7-2.5l-93.8-.2q-.5-49.3.1-98.6v-10.4c12.2 0 29.1-.5 41 .4.6-31.4-.5-63 .4-94.7-3.7-1.5-7.4-1.5-11.5-1.7 0-15.2.6-31 1-46.3"/><path fill="#056f9e" d="M748 1066c12.2 0 29.1-.6 41 .3 8.2 1.4 47.7 6.8 52.6 9.4-.6 28.8-1.5 70.8 0 99.4l-93.7-.2q-.5-49.3.1-98.6z"/><path fill="#82c39b" d="M748 1066c12.2 0 29.1-.6 41 .3 8.2 1.4 47.7 6.8 52.6 9.4-9 1-24.8.6-34 .6H748z"/><path fill="#a4375f" d="m1262.2 1181.5 132.8 60.8c4.9 39.2 6.3 84.6 12.2 122.7h-130c-4.5-58.3-8.4-126.3-15-183.5"/><path fill="#82c39b" d="M277.6 728a1133 1133 0 0 1 86.5-31.3c-4.7 41-8 90.3-14 130.1-1.4 15.6-2.7 35.9-4.8 51l-.9 7.9c-29.4.2-58.6 1.2-88 1.5l.9-7q1-9.6 2.3-19.1a2720 2720 0 0 1 18-133"/><path fill="#308869" d="M259.6 861c3-.4 14-6.2 17.4-7.6 25.8-11.1 44.8-24.2 73.2-26.6-1.5 15.6-2.8 35.9-5 51l-.8 7.9c-29.4.2-58.6 1.2-88 1.5l.9-7q1-9.6 2.3-19.1"/><path fill="#82c39b" d="M257.3 880.2c7.1-.6 20-.5 27.8-.7q30-1 60.2-1.7l-.9 7.9c-29.4.2-58.6 1.2-88 1.5z"/><path fill="#056f9e" d="M841.7 1175q9.3 1.6 18.7 2.6c.1 3.7 0 8.7.3 12.2v1.8q.3 52.5 1.3 105.2l-113 .3c-.3-35.1-1-69.8-1-105V1175z"/><path fill="#82c39b" d="M841.7 1175q9.3 1.6 18.7 2.6c.1 3.7 0 8.7.3 12.2v1.8c-2.3 1.3-102.8.5-112.7.5V1175z"/><path fill="#056f9e" d="M219.4 540c18.9 18.6 44 38.3 64.7 55.2-8 46.4-12.6 93-18.6 139.5l-2.5-.6a824 824 0 0 0-77.7 35.2c1.2-12.1 4-27.5 5.8-39.8q5.6-37.6 11.4-75.1c6-38 10.7-76.3 16.9-114.4m-47.7-48c13.4 13 20.2 23.4 36.8 38-3.4 18-6.4 45-9.2 63.6l-26.2 182c-19.4 11.5-37.1 21.8-56.5 33.7 9.6-55.5 20.4-110.8 29.5-166.6l15.8-95.6c3-17.6 5.9-37.9 9.8-55M638 1174.4q48.9.6 97.8.4l.1 17 1.1 105-101 .2c-.5-32.5.8-72.6 2-105.2z"/><path fill="#82c39b" d="M638 1174.4q48.9.6 97.8.4l.1 17c-32 .6-65.8 0-98 0z"/><path fill="#a4375f" d="M1407.8 1248.5q40.4 17.7 81.3 34.2c19.2 7.8 41.9 16.4 60.6 25.1 3 19.2 4.3 38.5 7 57.2h-138.5c-2.2-35-6.5-81.6-10.5-116.5"/><path fill="#308869" d="m234.1 1063.7 93 .4-1 10-6.6 66.6c-.8 8-2.4 27.9-4 35l-1.4 12.6-94.4-.3-1.2-2 1.5-11c2.7-31 8.7-69.6 12.6-101z"/><path fill="#6aba8e" d="M220 1175c12 0 91-2 95.5.7l-1.4 12.6-94.4-.3-1.2-2zm14.1-111.3 93 .4-1 10h-93.5z"/><path fill="#308869" d="m339.7 1064 90.5.1c-.2 3-.4 8.2-.8 11l-5.2 77c-.3 3.8-1 22.4-1.8 24.7l-.6 13c-7.1.6-25.2.2-32.6.2l-62.6-.8 1.4-15a1673 1673 0 0 1 10.6-99.6z"/><path fill="#6aba8e" d="M328 1174.2h60.8c5.8 0 28.2-.6 32.8.6l.8 2-.6 13c-7.1.6-25.2.2-32.6.2l-62.6-.8z"/><path fill="#82c39b" d="m339.7 1064 90.5.1c-.2 3-.4 8.2-.8 11l-90.8-.5z"/><path fill="#308869" d="m534.9 1174 91 .2-.7 17-1.4 106c-25-1.6-67.8-.2-94-.2.2-33.7 2.4-72.3 4.2-106.2z"/><path fill="#82c39b" d="m534.9 1174 91 .2-.7 17c-30.1.2-61-.1-91.2-.4z"/><path fill="#308869" d="M433.9 1190c28.1 0 60.4 1.1 88 .5l-3 72.8c-.5 12.5-.4 30-1.6 42q-.3 6.8-.3 13.7c-7.2 0-36-.2-41.3.6-6.7-1.4-45.8-15.6-49.1-20.4l.4-1.7c-.2-9.3 1.6-27.8 2.2-37.7q2.1-35 4.7-69.9"/><path fill="#82c39b" d="M427 1297.5c14.2-1.4 38 .7 53.2 0 3.9-.1 33.6-.3 36 .1 1 3.4 1 4.1 1.1 7.6q-.3 6.9-.3 13.8c-7.2 0-36-.2-41.3.6-6.7-1.4-45.8-15.6-49.1-20.4zM185.3 769.3c19.2-10.5 56-26.7 77.7-35.2l2.5.6q-7.5 48.3-14 96.6c-1.2 8.8-3.4 29.2-5.2 37l-1.2 12.4-1 7.2c-10.6-.2-24.1-.1-34.5-1a595 595 0 0 0-45 28.1c8-45 15-100 20.7-145.7"/><path fill="#308869" d="M222 881.3c5.8-3.8 17.9-9.7 24.3-13l-1.2 12.4c-7 0-15.9.4-23 .6"/><path fill="#056f9e" d="m641 1065.2 62.4.4c8.6 0 24.4-.5 32.4.2v10.2c-.4 31-1.3 68 0 98.8q-48.9.3-97.8-.4c-.4-27.2 1.2-71 2.7-98.4z"/><path fill="#82c39b" d="m641 1065.2 62.4.4c8.6 0 24.4-.5 32.4.2v10.2c-31.2.8-63.8-.1-95.1 0zM403.8 683.8c15.5 9.7 37.7 23.9 52.5 34.4-2.3 21.4-3.2 54.1-6.2 73.4q-.6 12.4-1.9 24.7c-25.6 1.3-61 4.3-85.7 4.6l-.1-2c2.1-12.8 3.4-30.8 4.7-44.2a8197 8197 0 0 1 8.2-81.4c8.2-3.7 19.9-7 28.5-9.5"/><path fill="#308869" d="M450 791.6q-.5 12.4-1.8 24.7c-25.6 1.3-61 4.3-85.7 4.6l-.1-2a1028 1028 0 0 1 87.7-27.3m-8.1 283.3c28 .1 57 0 85.2.6l-3.4 69.7c-.3 6-.2 29-1.4 33.5l-.5 11.8c-27.6.6-59.9-.5-88-.6 0-4.9.7-10.8 1.1-15.8 0-8.9 1.6-24.6 2.2-34z"/><path fill="#6aba8e" d="M435 1174.1c10.2 0 84.4-1 87 .9l.4 3.7-.5 11.8c-27.6.6-59.9-.5-88-.6 0-4.9.7-10.8 1.1-15.8"/><path fill="#056f9e" d="M873.3 1192.6q35.4.3 70.7 0l24 1.5c0 34.5.7 68.3 1 102.8-26.9 0-69.3-1.2-94.8.3-.2-34.8-1-69.9-.9-104.6M544.9 965.8c9.5.1 82 .3 85.8 2.1v1.2c.5 32.8-1.8 70.4-2.1 104l-.5 3c-28.7 0-60.5.6-89-.3l.7-11c.3-28.8 2.9-67.4 4.8-96z"/><path fill="#82c39b" d="M539.8 1064.8c12.5 0 79.7-1.5 87.9.8.7 3.2.8 4.2.9 7.6l-.5 2.9c-28.7 0-60.5.6-89-.3zm5.1-99c9.5.1 82 .3 85.8 2.1v1.2c-1 .5-2.4 1.2-4.2 1.2-26.7 0-53.5.6-80.2 0l-1.7-1.6z"/><path fill="#308869" d="m246.7 961 90.5 1-.7 7.2q-4.4 47.5-9.3 94.9l-93.1-.4c4.4-30.7 8-63.8 11.6-94.7z"/><path fill="#82c39b" d="m246.7 961 90.5 1-.7 7.2c-29.8-.6-61-.1-90.8-.2zM173 775.6c-6.5 49.3-14.7 99.2-21.6 148.7-1.5 11.4-2.9 24.3-4.8 35.5-3.9-1.6-30 .2-37.8-.2a20 20 0 0 0-8.4 9.4c-2.9 5.6-14.3 30.8-16 33.1l-.7-.4c1-15.2 7.5-48.7 10.2-65q10.7-63.8 22.7-127.4c19.4-11.9 37-22.2 56.5-33.7"/><path fill="#308869" d="M108.8 959.6c10.9-11.2 28.4-28.6 42.6-35.3-1.5 11.4-2.9 24.3-4.8 35.5-3.9-1.6-30 .2-37.8-.2m240.3 3.1 88 1-.2 6c-2.6 31.1-4.8 63.3-6.7 94.4l-90.5-.2c3-31 5.2-63.5 9-94.4z"/><path fill="#6aba8e" d="m349.1 962.7 88 1-.2 6a7330 7330 0 0 0-88.3-.2z"/><path fill="url(#h)" d="M449 970q41.6-.3 83 .5c-.6 31.1-2.8 63-4 94.2l-.8 10.8c-28.1-.7-57.1-.5-85.3-.6l.3-10c2.5-31.8 3.6-63 6.8-95"/><path fill="#82c39b" d="M442.2 1064.9c5.6-.6 21.5-.2 27.8-.2h58l-.8 10.8c-28.1-.7-57.1-.5-85.3-.6z"/><path fill="#056f9e" d="m643.2 970.2 92.7 1-.1 94.6c-8-.7-23.8-.2-32.4-.2l-62.4-.4zm-104.1 105.6c28.5.9 60.3.3 89 .3q-.3 49-2.2 98h-91c.1-30.2 2.7-67.7 4.2-98.3"/><path fill="#308869" d="m158.8 959.7 75.8.4-1.2 9c-4 31.2-7.4 64.7-11.9 95.7l-1.2 9.2-76.4-.6 1.2-9.6 12.4-94.9z"/><path fill="#6aba8e" d="M145 1063.8c7 0 73.1-.5 76.5 1l-1.2 9.2-76.4-.6zm13.8-104.1 75.8.4-1.2 9q-38-.4-75.9-.2z"/><path fill="#056f9e" d="M693.3 870q4.6 2.5 9 5.4 17.5 10.4 34.6 21.3c-.7 23.5-1.4 48.7-.8 72.2l-.2 2.2-92.7-.9v-1.5l2.9-91.2-.3-5.4c14.5-.1 33.2-.6 47.5-2"/><path fill="#82c39b" d="M693.3 870q4.6 2.5 9 5.4c-17.1 1.4-38.8 1.6-56.2 2l-.3-5.3c14.5-.1 33.2-.6 47.5-2m-50.1 98.6c9.1-2.8 78.1.3 92.9.2l-.2 2.2-92.7-.9z"/><path fill="#308869" d="M326.6 1189.2q31.3.6 62.6.8c7.4 0 25.5.4 32.6-.3l-7 106a765 765 0 0 1-95-44c2.6-20.5 4.2-41.8 6.8-62.5"/><path fill="#056f9e" d="m146.7 455.8 14.8 22.5c-1 10.5-4 27-5.7 37.7q-6.7 40.5-13.8 81.2l-38.5 221.6c-8.7 6.7-24 18.3-31 26.7 1.9-14 7.5-38.2 10.4-52.6l19.8-101.2c15.5-78.5 29-157.4 44-236M788.3 787l-1.1 9.3c-2.1 21.8-5.7 50.3-6.5 71.6l-.7 4.4q-16.7.7-33.4 1.7l-7.7-5.4c-9.8-5.4-88.2-56.7-90.6-61.5-.7-2.8-.9-3.6-1-6.6 2.3-2.4 3.7-2 7.5-2.8 38.2-5 95.1-8.8 133.5-10.7"/><path fill="#82c39b" d="m788.3 787-1.1 9.3Q741 799 695 802.5c-13.5 1.1-33.5 2.5-46.7 4.6-.7-2.8-.9-3.6-1-6.6 2.3-2.4 3.7-2 7.5-2.8 38.2-5 95.1-8.8 133.5-10.7m-49.4 81.6c10.4-1 30.8-.6 41.8-.7l-.7 4.4q-16.7.7-33.4 1.7z"/><path fill="#308869" d="M496.8 875c12-.2 28.6-1.2 40.1-.7l-.3 5.8c-1.3 28-3 56.7-4 84.8l-.6 5.6q-41.4-.8-83-.6v-5.7c1-4 1.7-21 2-26.5q1.5-27.4 4-54.7l.8-7.1c13 .1 25.3-.4 38.3-1z"/><path fill="#82c39b" d="M496.8 875c12-.2 28.6-1.2 40.1-.7l-.3 5.8c-2.8 1.4-72.6 3-81.6 2.9l.8-7.1c13 .1 25.3-.4 38.3-1zM449 964.2q41.8.7 83.6.7l-.6 5.6q-41.4-.8-83-.6z"/><path fill="#056f9e" d="M969 1296.9q9.6.5 19.2 1.3l1.2 20.1c2.5 12.9 1.7 32.8 3.7 46.7H875.9q-1-22.4-1-44.8l-.7-23c25.5-1.5 68-.3 94.8-.3"/><path fill="#82c39b" d="M969 1296.9q9.6.5 19.2 1.3l1.2 20.1-1 2c-7.9 1.2-30.7.6-39.5.5l-74-.6-.7-23c25.5-1.5 68-.3 94.8-.3"/><path fill="#308869" d="m749 1297 113-.2.2 13c1.2 16.1.7 38.6.9 55.2H751q-.9-22.6-1.2-45.3c-.5-7.4-.6-15.2-.8-22.6"/><path fill="#82c39b" d="m749 1297 113-.2.2 13c-.2 2.6 0 7.5-1.4 9.2-7.5.8-14.9.5-22.4.6-29.5.3-59.1-.3-88.6.1-.5-7.4-.6-15.2-.8-22.6"/><path fill="#056f9e" d="M633 878.6c.2 29.1-1.6 60-2.3 89.3-3.7-1.8-76.3-2-85.8-2 .1-26.4 2.6-58.9 4.2-85.5q42-1.1 83.9-1.8"/><path fill="#308869" d="m636 1297 101-.1.2 9.7c1.4 16.2.8 41.5 1 58.4H635.3q-.1-23 .3-45.9c.3-7 .3-14.9.4-22"/><path fill="#82c39b" d="m636 1297 101-.1.2 9.7q-.3 6.2-.3 12.4l-101.3.1c.3-7 .3-14.9.4-22"/><path fill="#308869" d="M349.1 962.7c3.7-23.2 4-53.7 7.4-78.4 4.1 1.5 77.6-.7 86.5-.8l-5.9 80.2zm-92.6-75.5c29.3-.3 58.5-1.3 88-1.5q-3.3 38.2-7.3 76.2l-90.5-1c1.2-19.4 6.8-53.6 9.8-73.7"/><path fill="#056f9e" d="M294.4 604c16 15 54.7 41.8 73.9 55.4-1.4 10.8-3.8 26.9-4.2 37.3a1133 1133 0 0 0-86.5 31.4 241 241 0 0 0 1.8-14.5c3.9-36.6 9.3-73.1 15-109.5"/><path fill="#308869" d="M681.3 745.1c4.1 1 49-4.1 57-4.7 18.6-1.3 38-3.3 57.1-3.6-3 17-4.6 33.3-7 50.2a1987 1987 0 0 0-133.6 10.7c6.2-14.3 19-37.6 26.5-52.6m-537.4 328.3 76.4.5c-3.8 30.3-8 75.9-13.6 104.5a682 682 0 0 1-69-57.3c2.5-14.2 4.4-33 6.2-47.7"/><path fill="#82c39b" d="M103.5 818.8q-21 103.8-36.3 208.4l-1.6 2.5a284 284 0 0 1-24.2-60c-10.7-39.2-7.2-68.2 12.9-103.2l2.7-2.6c-2.2 16.7-10.2 49-14 67l11.3 1.3c7-23.3 13.2-61.7 18.3-86.7 7-8.4 22.2-20 31-26.7"/><path fill="#308869" d="M100.4 969c2.2-4.8 4.3-6.6 8.4-9.4 7.7.4 33.9-1.4 37.8.2l-1.3 9.1q-6.2 47.4-12 94.9l-1.4 9.4q-19-.3-37.7 0l-7-9.3-1.3-2c0-5.5-4.8-24.2-5.7-31.5.5-7.6 1.6-21.4 3.5-28.7l.8.4c1.6-2.3 13-27.5 15.9-33"/><path fill="#6aba8e" d="M100.4 969c2.2-4.8 4.3-6.6 8.4-9.4 7.7.4 33.9-1.4 37.8.2l-1.3 9.1zm-13.2 95c14.7-.5 31.4-.2 46.2-.2l-1.5 9.4q-19-.3-37.7 0z"/><path fill="#308869" d="M362.5 820.9c24.7-.3 60-3.3 85.7-4.6l-.4 6.6c-1.7 18.3-2.7 36.6-4.2 54.9l-.6 5.7c-9 .1-82.4 2.3-86.5.8l.6-6.5c2-18 4-38.9 5.4-57"/><path fill="#6aba8e" d="M357.1 877.8c20.7-.3 62-1.6 85-1.5l1.5 1.5-.6 5.7c-9 .1-82.4 2.3-86.5.8z"/><path fill="#82c39b" d="M362.5 820.9c24.7-.3 60-3.3 85.7-4.6l-.4 6.6c-10.5 1.1-81.6 5-84.7 3z"/><path fill="#308869" d="M529.7 1297c26.3 0 69-1.4 94 .2l-.4 21.9-.4 45.9h-13.5c-8.8-3.9-24-8.2-33.4-11a1530 1530 0 0 1-48.1-15.3c0-6.3.6-13.2.9-19.5z"/><path fill="#82c39b" d="M529.7 1297c26.3 0 69-1.4 94 .2l-.4 21.9-94.5.1z"/><path fill="#308869" d="M599.1 808.7c11.8 7.5 24.4 15.7 36.4 22.7-.8 12.8-2.1 29.9-1.8 42.5l-.7 4.7q-42 .6-84 1.8l.8-6.3q2-29.6 4.3-59.1c6 .2 40.1-4 45-6.3"/><path fill="#6aba8e" d="M549.8 874c17.8-.3 62.3-2.3 82.2-1.7l1.7 1.6-.7 4.7q-42 .6-84 1.8z"/><path fill="#308869" d="M209.6 886.9c10.4.9 23.9.8 34.5 1-2.8 22-6 50.6-9.5 72.2l-75.8-.4 5.8-44.7q21.9-15 45-28.1"/><path fill="#82c39b" d="M671.9 694.3a206 206 0 0 0 36.2-16c13.3 37.3 52.3 41.7 87.1 39.1l2.2 1c.5 5-1.1 13.3-2 18.4-19.2.3-38.5 2.3-57 3.6-8 .6-53 5.7-57 4.7 10.2-22 6.7-34-9.5-50.8"/><path fill="#056f9e" d="M748.6 971c4.2-2.5 23.2-1.3 29.3-1.1 4 .2 7.8.2 11.5 1.7-.9 31.6.2 63.3-.4 94.7-11.9-.9-28.8-.4-41-.4 0-29.8-.8-65 .8-94.2z"/><path fill="#82c39b" d="M748.6 971c4.2-2.5 23.2-1.3 29.3-1.1 4 .2 7.8.2 11.5 1.7-10.3 1-29.7.2-40.6.1z"/><path fill="#a4375f" d="M1560.9 1311.7c48.2 20 96.3 34.8 143.6 53.3h-137c-2-17.1-3.9-36.3-6.6-53.3"/><path fill="#82c39b" d="M467.3 725.2c9.7 6.4 64.7 39.3 66.7 45.3l-1.9 3c-22.4 4.2-47.8 10.3-70.2 15.6 2.5-20.5 3.1-42.9 5.4-64"/><path fill="#308869" d="m540.1 817.6-3.2 56.7c-11.5-.5-28 .5-40 .7 4.3-5.7-.8-27-2-34.4 13.7-6.5 21-13.3 33.2-22 2 .2 9.6-.7 12-1M462 789c22.3-5.2 47.7-11.3 70.1-15.5-5 6.1-32.6 37.3-38.1 41.8l-6.1 6.6-28.2 1 .4-7.5c.9-8 1.5-18.4 1.8-26.3"/><path fill="#82c39b" d="M460 815.4c5.9-.2 30.4-1.5 34-.1l-6.1 6.6-28.2 1z"/><path fill="#06689f" d="m749.1 904.5 29.8 19c-.4 15.3-1 31.2-1 46.4-6-.2-25.1-1.4-29.3 1-1.2-5.5.4-57.2.5-66.4"/><path fill="#308869" d="m459.7 823 28.2-1a116 116 0 0 1-15.2 13.5c6.5 12.6 12.5 28.5 21.4 39.4-13 .6-25.3 1.1-38.3 1 1-16.8 2-36.5 4-53m187.7 16.6q23.1 15 45.8 30.6c-14.3 1.4-33 1.9-47.5 2 1-9.7 1.2-22.7 1.7-32.6"/><path fill="#d98384" d="m733 609.4-1.7-3.4c.2-5.2 8.4-22.2 13.6-23.6.4 2.5.5 3.2 1.4 5.5l1.9-.5c4.1-3.5 5.6-8.6 8-13.8 5 6.6.5 24-4.7 30.2l-2 1-6-2.7c-4.6 2.6-6 5-10.6 7.3"/><path fill="#056f9e" d="M780 872.3c0 8.4-.8 14.8-1.3 22.9-10.7-7.5-20.9-13-32-21.2 10.9-.8 22.3-1.2 33.3-1.7M378.3 666c8.2 6.2 17 12 25.5 17.8-8.6 2.5-20.3 5.8-28.5 9.5q1.7-13.6 3-27.3"/><path fill="#82c39b" d="M555 806.3c9.8-.4 24.4-2.6 34.4-3.8l9.7 6.2c-4.9 2.3-39 6.5-45 6.3z"/><path fill="#308869" d="m565.2 788.7 24.2 13.8c-10 1.2-24.6 3.4-34.3 3.8.8-9.7 3-10.7 10.1-17.6"/><path fill="#82c39b" d="M528.1 818.7c3.2-2.6 7.7-6.8 11.3-7.6l1.2 1.1-.5 5.4c-2.4.3-10 1.2-12 1M618 711a724 724 0 0 0 31.3 20.2q-2.5 9.3-5.5 18.5c-4 14.9-9 36.1-14.5 49.6L581.6 768l4.7-5.2c13-17.5 22-32.7 31.8-52"/><path fill="#308869" d="M586.3 762.9c10.1-1.2 46-10.4 57.5-13.2-4 14.9-9 36.1-14.5 49.6L581.6 768z"/><path fill="#06689f" d="M1457.4 0H2048v519.2c-128-4.2-261.8-10.8-389.7-8.2q-142.3 3.8-283.6 21.9l2.7-16.2c1-8.4-.3-15.2 8.4-16.8 12.7-.5 27.4-3.5 41.2-4l-2.2-146.6c.9-12.8-.4-26.5.3-39.4.7-15 2.4-29.9 2.3-44.9 0-3.6-.3-6.8.6-10.3-1.1-4.1-.3-12.5 0-17.1-.1-13.8-.6-29.3 0-43 4.2-17 7.2-43.3 9.4-60.6q4.5-36.5 10.7-72.6h.7l.6-5.6 1.9-10.7c.7-4.6 1.2-10.2 1.8-15q2-15 4.3-30.1"/><path fill="#192343" d="M1457.4 0h304l9 43.2 1.5 8.2 14.3 77c2.6 13.7 6.3 29.6 8.3 43l1 7.4q3.5 16.5 6.6 33.4c4-.2 6.8-.9 10 1.3 3.2 4 3.4 11.3 4.2 16.9l-49.1-.5 28 242c-2.4 1.7-4 1.4-7.2 1.5-3.6-3.5-6.5-35.1-7.3-42.5l-6.3-51.4c-5.8-49.3-12.3-100.4-17-149.7l-58.4.2a12851 12851 0 0 1 7.5 150.7c1.3 29 2.2 64.8 5.7 93.2l-12.1.2c-5.2.5-12.8 1-17.7 1.7l-7.4.9-39.8 2.5-7.9.7-50.5 3.4c-6 .5-20.5 1.9-26 1.6l-8.2.8q-34.8 2.5-69.6 5.7l-8.8.9q-18.6 2-37.2 3.5l-2.2-146.5c.9-12.8-.4-26.5.3-39.4.7-15 2.4-29.9 2.3-44.9 0-3.6-.3-6.8.6-10.3-1.1-4.1-.3-12.5 0-17.1-.1-13.8-.6-29.3 0-43 4.2-17 7.2-43.3 9.4-60.6q4.5-36.5 10.7-72.6h.7l.6-5.6 1.9-10.7c.7-4.6 1.2-10.2 1.8-15q2-15 4.3-30.1"/><path fill="#06689f" d="M1457.4 0h304l9 43.2 1.5 8.2 14.3 77c2.6 13.7 6.3 29.6 8.3 43l1 7.4q3.5 16.5 6.6 33.4-51.6-.3-103 .8c-.1-16.7-5-143.1-9-154.3-10.4-5-130-17-149.5-19.2l-57.6-6.6c-8-.9-22.3-2.9-30-2.7z"/><path fill="#fcfde9" d="M1464.8 231.2c-44-41.5-23.4-117.4 33.6-136.8 22-7.4 46-5.7 66.8 4.7a83 83 0 0 1 41.9 49.6c8 25 4.1 46-7.7 68.7-37.3 2-98.2 6.8-134.6 13.8"/><path fill="#d98384" d="M1579.3 234.6c7.4-1.2 21.9-1.3 30.2-1.8q5 79.2 11 158.4c2.2 28 3.7 61.2 6.8 88.7l-50.5 3.4c-6 .5-20.5 1.9-26 1.6-4.9-62-5.8-124.7-10.3-186.9-.9-12.8-.5-27-2.4-39.7 6.3 4.9 39.9-14.8 43.8-22.8zm-117.5 13 18-2.6c11.5 11.8 34.5 16.6 50.4 15.3 5.2 73.6 8.1 151.5 12.4 225.4q-34.8 2.5-69.6 5.7c-1.8-25.2-2.5-52.5-3.6-78zm-13-186.2c21 3.3 49.9 5.3 71.6 7.6l140 14c1.7 42.8 4 88.3 4.8 131l-65.8 3.4c11.8-22.7 15.6-43.7 7.7-68.7a83 83 0 0 0-41.9-49.6 88 88 0 0 0-66.8-4.7c-57 19.4-77.6 95.3-33.6 136.8-12.1 2-24.7 4-36.8 6.4-.1-13.8-.6-29.3 0-43 4.2-17 7.2-43.3 9.4-60.6q4.5-36.5 10.7-72.6zm169 171.2q24-1 48.1-1.7 2 76 5.2 152c1 28.3 1.3 66.4 3.9 93.8l-39.8 2.5c-3.2-27-4.5-59.3-6.5-86.9zM1428 254.7c8.3-2 17-4 25.3-5.4l7 148c1.3 30.5 3.6 64.8 3.9 95q-18.6 2-37.2 3.5l-2.2-146.5c.9-12.8-.4-26.5.3-39.4.7-15 2.4-29.9 2.3-44.9 0-3.6-.3-6.8.6-10.3"/><path fill="#a4375f" d="M1451.3 45c23.2.9 47.5 3.9 70.7 6.4l95.4 10c19.8 2.3 43.4 5.5 63.1 6.8 1.9 44.5 6.8 101.8 6.6 145l-14.9.9c-1.7-46.1-3.7-90.8-4.5-137l-218.3-21.3zm222 185.6 14.7-.5c1 10 1.5 21.1 1.8 31.1 2.2 70.9 8.2 142.1 10.3 212.9-5.2.5-12.8 1-17.7 1.7z"/><path fill="#fcfde9" d="M1479.8 245c16.8-2.8 33-4.2 50-6l.4 21.3c-15.9 1.3-39-3.5-50.4-15.3m57-6.8q21.2-2.1 42.5-3.6l2.6.9c-3.9 8-37.6 27.7-43.8 22.8 0-6.2-.8-13.8-1.3-20.1"/><path fill="#192343" d="M1761.4 0H1961c20 104 45 210.8 67.7 314.5h-193.3l-4.7-20.5c-4.1-18.2-12-45.9-14.5-63.6-.8-5.6-1-13-4.2-17-3.2-2-6-1.4-10-1.2q-3-16.8-6.6-33.4l-1-7.5c-2-13.3-5.7-29.2-8.2-42.8l-14.4-77-1.4-8.3z"/><path fill="#a4375f" d="M1772 51.4c24.2-6.6 56.5-13.2 81.4-18.2 8.5 42.3 14.3 88.6 23.6 130.1-22.6 2.3-61 7.3-82.5 8-2-13.3-5.7-29.2-8.2-42.8zm23.5 127.4 82.8-8.1a3423 3423 0 0 0 22.4 123.3h-70c-4-18.2-12-45.9-14.4-63.6-.8-5.6-1-13-4.2-17-3.2-2-6-1.4-10-1.2q-3-16.8-6.6-33.4M1761.4 0h86.2l5 26.4q-41.3 7.6-82.1 16.8zm94.2 0h94c.4 2 .5 3.5.8 5.4-7.5 4-77.3 16.2-90.6 19zm94 14.3h2.4c2.2 4.3 7.7 36.2 9.2 43.7l20.5 95.2q-42.8 4.6-85.5 8.5c-4 .4-6.1.6-10.1.6-3.5-3.7-21-114.2-24.7-130.7 28.1-4.5 59.9-11.7 88.2-17.3m30.6 146.2 2.2-.3c1.9 1.8 27.3 123 29.7 134l-92.1-.3h-11.6c-8-37.3-15.2-85-22.1-123.8 9.8-1.5 25.1-2.5 35.4-3.5q29.2-2.7 58.5-6.1"/><path fill="#192343" d="m1843.6 352.6 204.4 42.2v79.4l-34.2.1-9.2.2q-31.7.2-63.5.2h-8.7a5525 5525 0 0 0-17.9-95.5c-21.5-5-45.2-9-67-13.7-1.2-4.2-2.5-8.8-3.9-12.9"/><path fill="#a4375f" d="M1922.5 381q33.3 6.6 66.4 13.6 7.4 40 15.7 79.9-31.7.2-63.5.2c-7.1-27.8-12-64.5-18.6-93.7m75 14.9q25.3 5.3 50.5 11v67.3l-34.2.1c-6.5-26.2-10.4-52.2-16.3-78.4m-150-30.4c21.8 4.7 45.5 8.7 67 13.7a5525 5525 0 0 1 17.9 95.6q-29 0-57.9-.7c-9.7-35.6-18.1-72.7-27-108.6"/><path fill="#308869" d="M886.3 0h571.1q-2.3 15-4.3 30.2c-20.1-3.4-52-7.8-70.9-12.5-.4 74.1 2 151.8 2.8 226.3-55.2 11-117 24-171 39-19.6 5.5-112.8 34.2-126.3 43.5-41 14-213.2 89-229.1 124-2 4.3-2.2 10.3-2.7 15l-.2 1c-4.4.2-36.7 15-42.9 17.6.2-12.3 7-60.4 9.6-73q3.8-24.7 7.1-49.5l1-4c2.4-17.2 5.1-38 8.6-54.8l.4-3.9 13-82.3.5-4.5c3.7-23 7-49.6 11.4-72.1l.8-5c7.7-44.4 12.5-90.7 21-135.1"/><path fill="#6aba8e" d="M1317.6 87.4q1.9.4 3.8 1.2l.5 1.4c-2.3.7-2 .2-3.4 1.6 4 .2 6.7.2 9 3.4l-.4 3.1c-2.4 1.6-2 1-5.9.5l-4.7-1c-2.4 1.7-2.7 2-5.5 2.7 2.1-5 1-3.5 6.2-6.6-2-1-1.4-.3-2.2-2.4zM1287 176c.6.6 2 9 2.2 10.3l-.8 1.2-1.5-2.2-2.3-1.7c-2.4-1.9-2.5-1.7-3.6-4.5l1-2.1c2.4-.8 2.5-.9 5-1m59.7-166.2c1.5.5 6.1.5 9.3 1.1l.7 1.3c-1.4 2.6-1.6 2.7-3.7 4.7l-.7-2h-2.4l-.3-2.2-.7-.2c.3 2.2.8 2.9 0 4.6l-1.8-.4c-1.3-2.5-.8-4-.4-7m-62.1 151c4 3.4 6 8.2 3.3 13-4-4-7.1-8-3.3-13m-24.2 76.1c3 1.7 4.6 2.4 6.4 5.4-.2 2.4-.1 2.4-1.6 4.5l-.5-1.6c-2.7-.2-2.6-.3-5-2-.8-3.6-.6-2.4.7-6.3m104.2-143.6c1.6.1 2 .3 3.6.8 1.2 3 .2 4.7-.6 8.4-1.9 0-1.9-.3-3.6-1.2-1.2-3-.3-4.8.6-8"/><path fill="#308869" d="M1382.2 17.7c18.9 4.7 50.8 9.1 70.9 12.5-.6 4.7-1.1 10.3-1.8 14.9l-1.9 10.7-.7 5.6h-.6q-6 36.1-10.7 72.6c-2.2 17.3-5.2 43.7-9.4 60.6-.6 13.7-.1 29.2 0 43-.3 4.6-1.1 13 0 17.1-1 3.5-.7 6.7-.7 10.3.2 15-1.5 29.9-2.2 44.9-.7 12.9.6 26.6-.3 39.4l2.2 146.5c-13.8.6-28.5 3.6-41.2 4-8.7 1.7-7.3 8.5-8.4 17l-2.7 16-.5.3c-4.3 29-9.5 56.9-13.6 86.2v3.4l-.3 1c-2.3 8.5-4.5 27-5.9 36.1l-9.9 68c-.7 4.8-2.8 22.2-4.2 25.4l-.8-.2c1-9.5 4.2-26 4.3-34.4-1.6-1.8-1.6-1.9-3.7-3.3 2-2 2.5-2 5-3.4 1.6-5.9 8.5-48.8 7.2-52.7-5.2-2.6-10.6 1.2-15.7 3-1.6-1.8-2.2-2.5-4.5-3.4l-1.7-3-1.8.2-1.4 2c1.3 1.4 1.8 1.8 3.2 2.8q0 1.5-.6 2.2l1.7 3.3h1.1l2 1.8-.4 1-3.8 1.2-2.2-2.7-1-4.9c-5.5 3-2.8-1.8-7-3.5-3.5 3-2 6-4.7 9-.4-4.6 1.7-9 4.3-12.7l-.8-2.1c-4 4-5.5 7.6-9 10.5-6.6-1-3.2-7.7-8.6-13.2 0 3.4.6 4.4-1 7.1-2.9.2-1.7.7-3.7-1 2-7.5-2-2.1-5-10.1l-4.5 4.2c-5.4.8-5-2.7-9.7-3.2-4.9-.5-16.4-5-20.5-2.4-.3-2.7.1-3.6-1.4-4.8-1.8 3-1 6.1-.8 10.2l-1.3 1.2-1.4-.5c-1-2.7-1-3.4-.5-6.2-3.8-1-6-.9-8.4-3.3q.7-2 1.8-3.7l-5.7-.1c-1 4.6-.4 4.4-3.4 7.3l-1-.6v-.7c.4-2 .6-2.7.2-4.7l-8.3 1c-1 4.4 3 6.9 1.5 11.5l-1 .2c-2.2-3.5-4.8-8.6-8.2-10.7h-2.4l-.8 4.9c-3-1.2 0-2.6-4-3l.5 3.6-1.4.6c-1.7-1-5.5-4.1-7.6-4.1-15.2 0-152.3 21.8-156.3 19.4-18.6 1.1-50 6.6-69.5 9.4l-107 14.9c-14 2-44 7.8-56.2 8l-8.2 2.4-1.5-2.8 1-2.2c70.8-54.7 167.8-84.2 251.5-111.4 3.8-7.5 53.5-11.8 59.4-19.9-.3-2.4-.2-2.9.8-5.1l-.6-1.2c-16.6-3.4-22.8 2.3-39.2 4.3h-1c4.8-2 6-2.8 11.3-3.4-.3-11.4 4.1-49.1 5.4-62.3q5.7-60.6 10.7-121.3l.6-4c.4-8.3 2.5-22.8 2-30.2l-1.8-1c-5.5 2.2-25 9-28 11.2-2 4.9-.8 3.6-4.5 5.8l-1.2-2c-4.8-2.1-5.6-2.2-6.3-7.3 3.5-10.4 15.2-12.8 23.2-16.9l-.2-1.2c13.5-9.3 106.7-38 126.3-43.5 54-15.1 115.7-28 170.9-39.1-.8-74.5-3.2-152.2-2.8-226.3"/><path fill="url(#i)" d="M1382.2 17.7c18.9 4.7 50.8 9.1 70.9 12.5-.6 4.7-1.1 10.3-1.8 14.9l-1.9 10.7-.7 5.6h-.6q-6 36.1-10.7 72.6c-2.2 17.3-5.2 43.7-9.4 60.6-.6 13.7-.1 29.2 0 43-.3 4.6-1.1 13 0 17.1-1 3.5-.7 6.7-.7 10.3.2 15-1.5 29.9-2.2 44.9-.7 12.9.6 26.6-.3 39.4l2.2 146.5c-13.8.6-28.5 3.6-41.2 4 .7-6.7 1.1-12.2 2.5-18.9-2.5-3.8-1.3-16.2-1.3-21.1q.3-16.8 0-33.6-.9-82.5-2.8-165c-9.2 2.4-16 4-25.4 5.5-1 21.6.9 50.3 1.8 72.1q2.7 58.4 3.4 116.7c0 10.8 1.8 36.4.1 45.6-2.5 1.8-3 1.6-6.2 1.8-3.4-4.6-2.1-10.5-2-16 .5-17.3-1-34.6-1-51.9-.5-55.4-3.3-111.2-3.7-166.5-17.4 4.2-35.7 8-53.2 12-.2 28.6 5.6 224.9 2.2 229.8-2.8.8-3 1-5.6.2-2-7.2-1.7-65.9-2-77-.7-50.3-1.7-101.1-1.7-151.4q-20.7 5.4-41 11.6c0 18.2-1.3 38.3-1.7 56.9l-1 88c-.5 25-.8 50.7-1.4 75.8q0 4.8-3 8.5l-2.1-.6c-5.7-6.8-2-62.1-1.7-73.9q2.4-76.4 3-152.7c-11.2 3.6-23.3 6.9-34.7 10.1q-3.6 82.3-8.4 164.5l-2.2 36.7c-.4 6.7 0 15.9-1.6 22-2.5 2.5-1.7 2.5-4.4 2.9-4-4.5-2.4-15-2.1-20.6 2.2-49.3 7.1-100 8.5-149.1 1.5-6.4 2.7-46 3-54.4-11.3 4-28.1 8.6-40 12-1 10.5-2 23-2.2 33.5q-4.4 61.5-7.7 123.4c-.6 10.7-2.3 56.2-3.9 63.8-3.3 1.5-4.4 1.7-8 2.4l11.2-182.2a422 422 0 0 0 1.6-37.7q-17.9 5.8-35.5 12.4l-2.8 32.4c-2.4 2.1-4 3.2-7 2.8l-1.2-2.4c.4-8.3 2.5-22.8 2-30.2l-1.8-1c-5.5 2.2-25 9-28 11.2-2 4.9-.8 3.6-4.5 5.8l-1.2-2c-4.8-2.1-5.6-2.2-6.3-7.3 3.5-10.4 15.2-12.8 23.2-16.9l-.2-1.2c13.5-9.3 106.7-38 126.3-43.5 54-15.1 115.7-28 170.9-39.1-.8-74.5-3.2-152.2-2.8-226.3"/><path fill="#192343" d="M1388.3 481c9.1-49 19.7-97.4 29.5-146.1 1.9-9 3.3-18 5.9-26.7.8 13.4 0 27.3 1.1 41l2.2 146.6c-13.8.6-28.5 3.6-41.2 4 .7-6.7 1.1-12.2 2.5-18.9"/><path fill="url(#j)" d="M1426 58.9c8.3.3 13.9 1.2 22 2.5q-6 36.1-10.6 72.6c-2.2 17.3-5.2 43.7-9.4 60.6-1.6-44.1.6-92.8-2-135.7"/><path fill="#192343" d="m1104 372.2.6-4 1.2 2.4c3 .4 4.6-.7 7-2.8v2.6c-2.5 10.2-3.7 39.2-5 51.5-4.7 42.8-6.4 89.2-11.6 131.6l-8.3 2.3c-.3-11.4 4.1-49.1 5.4-62.3q5.7-60.6 10.7-121.3"/><path fill="#6aba8e" d="M1096.2 553.5c7.9-1.6 20.7-6.1 28.3-6.4 2.2 2 3.5 3 6 4.7l2.3-1.5 1.6 1.9c-1 4-6.7-.1-12 4.6.8 3.4.3 2.2 3.4 4.9 8.2 1.7 7.8-3.8 13.7-5.3 3.5.2 7.2 1.6 10.7.4 22-7.6 45.4-9.7 67.7-16 2-.6 1.3-3.3 2-5.4 9.2 2 2 5.7 12.3 3.5 6.4-1.4 17.8-4.7 23.8-3.4-49.2 9.4-94.8 19.3-143.5 31.4-14.7 3.6-42.3 11.8-55.3 14.2 3.8-7.5 53.5-11.8 59.4-19.9-.3-2.4-.2-2.9.8-5.1l-.6-1.2c-16.6-3.4-22.8 2.3-39.2 4.3h-1c4.8-2 6-2.8 11.3-3.4z"/><path fill="#192343" d="M1374.7 532.9q141.3-18 283.6-22c128-2.5 261.7 4.1 389.7 8.4v2.1q-14 14.2-27.7 28.6l-452 48.3-150.2 17.3c-18.3 2-39.6 5.7-57.6 7.1l.1-3.4c4.2-29.3 9.3-57.3 13.6-86.2z"/></svg>